<?xml version="1.0" encoding="UTF-8" standalone="no"?>
<svg
   xmlns:dc="http://purl.org/dc/elements/1.1/"
   xmlns:cc="http://creativecommons.org/ns#"
   xmlns:rdf="http://www.w3.org/1999/02/22-rdf-syntax-ns#"
   xmlns:svg="http://www.w3.org/2000/svg"
   xmlns="http://www.w3.org/2000/svg"
   xmlns:sodipodi="http://sodipodi.sourceforge.net/DTD/sodipodi-0.dtd"
   xmlns:inkscape="http://www.inkscape.org/namespaces/inkscape"
   inkscape:version="1.0 (4035a4fb49, 2020-05-01)"
   sodipodi:docname="logoFinal.svg"
   viewBox="0 0 1056 816"
   height="816"
   width="1056"
   xml:space="preserve"
   id="svg42"
   version="1.1"><metadata
     id="metadata48"><rdf:RDF><cc:Work
         rdf:about=""><dc:format>image/svg+xml</dc:format><dc:type
           rdf:resource="http://purl.org/dc/dcmitype/StillImage" /><dc:title></dc:title></cc:Work></rdf:RDF></metadata><defs
     id="defs46"><clipPath
       id="clipPath86"
       clipPathUnits="userSpaceOnUse"><path
         id="path84"
         d="m 734.098,755.207 h 498.164 V 1365.52 H 734.098 Z" /></clipPath><clipPath
       id="clipPath92"
       clipPathUnits="userSpaceOnUse"><path
         id="path90"
         d="M 734.099,755.207 H 1232.26 V 1365.52 H 734.099 Z" /></clipPath><clipPath
       id="clipPath96"
       clipPathUnits="userSpaceOnUse"><path
         id="path94"
         d="m 734.098,755.207 h 498.164 V 1365.52 H 734.098 Z" /></clipPath><clipPath
       id="clipPath172"
       clipPathUnits="userSpaceOnUse"><path
         id="path170"
         d="m 3993.49,560.934 h 824.902 v 1010.62 H 3993.49 Z" /></clipPath><clipPath
       id="clipPath178"
       clipPathUnits="userSpaceOnUse"><path
         id="path176"
         d="m 3993.49,560.933 h 824.9 V 1571.55 h -824.9 z" /></clipPath><clipPath
       id="clipPath182"
       clipPathUnits="userSpaceOnUse"><path
         id="path180"
         d="m 3993.49,560.934 h 824.902 v 1010.62 H 3993.49 Z" /></clipPath></defs><sodipodi:namedview
     inkscape:current-layer="g52"
     inkscape:window-maximized="1"
     inkscape:window-y="-11"
     inkscape:window-x="-11"
     inkscape:cy="408"
     inkscape:cx="528"
     inkscape:zoom="0.98039216"
     showgrid="false"
     id="namedview44"
     inkscape:window-height="986"
     inkscape:window-width="1920"
     inkscape:pageshadow="2"
     inkscape:pageopacity="0"
     guidetolerance="10"
     gridtolerance="10"
     objecttolerance="10"
     borderopacity="1"
     bordercolor="#666666"
     pagecolor="#ffffff" /><g
     transform="matrix(1.3333333,0,0,-1.3333333,0,816)"
     inkscape:label="ink_ext_XXXXXX"
     inkscape:groupmode="layer"
     id="g50"><g
       transform="matrix(0.1,0,0,0.1,-0.76500002,47.430001)"
       id="g52"><path
         id="path58"
         style="fill:#e94190;fill-opacity:1;fill-rule:nonzero;stroke:none"
         d="m 1129.53,2051.348 h 5304.46 v 1605.9 H 1129.53 Z" /><path
         id="path148"
         style="fill:#ffffff;fill-opacity:1;fill-rule:nonzero;stroke:none"
         d="m 3022.6,3335.89 h -27.33 c -9.41,0 -16.81,2.74 -22.24,8.24 -5.42,5.5 -8.14,13.02 -8.14,22.56 v 77.88 c 0,9.55 2.72,17.07 8.14,22.56 5.43,5.49 12.83,8.24 22.24,8.24 h 27.33 c 9.4,0 16.81,-2.75 22.23,-8.24 5.43,-5.49 8.13,-13.01 8.13,-22.56 v -10.63 c 0,-1.73 -0.78,-2.6 -2.38,-2.6 h -6.07 c -1.59,0 -2.39,0.87 -2.39,2.6 v 10.2 c 0,6.94 -1.77,12.25 -5.32,15.94 -3.53,3.69 -8.63,5.53 -15.28,5.53 h -25.38 c -6.66,0 -11.72,-1.88 -15.19,-5.64 -3.47,-3.76 -5.2,-9.04 -5.2,-15.83 v -77.01 c 0,-6.8 1.73,-12.08 5.2,-15.84 3.47,-3.76 8.53,-5.64 15.19,-5.64 h 25.38 c 6.65,0 11.75,1.85 15.28,5.53 3.55,3.69 5.32,9.01 5.32,15.95 v 10.19 c 0,1.74 0.8,2.61 2.39,2.61 h 6.07 c 1.6,0 2.38,-0.87 2.38,-2.61 v -10.63 c 0,-9.54 -2.7,-17.06 -8.13,-22.56 -5.42,-5.5 -12.83,-8.24 -22.23,-8.24" /><path
         id="path150"
         style="fill:#ffffff;fill-opacity:1;fill-rule:nonzero;stroke:none"
         d="m 3105.03,3345.65 h 24.73 c 6.65,0 11.75,1.85 15.29,5.53 3.55,3.69 5.32,9.01 5.32,15.95 v 77.01 c 0,6.94 -1.77,12.25 -5.32,15.94 -3.54,3.69 -8.64,5.53 -15.29,5.53 h -24.73 c -6.66,0 -11.71,-1.88 -15.19,-5.64 -3.47,-3.76 -5.2,-9.04 -5.2,-15.83 v -77.01 c 0,-6.8 1.73,-12.08 5.2,-15.84 3.48,-3.76 8.53,-5.64 15.19,-5.64 m 25.81,-9.76 h -26.68 c -9.4,0 -16.81,2.75 -22.23,8.24 -5.43,5.5 -8.14,13.02 -8.14,22.56 v 77.88 c 0,9.55 2.71,17.07 8.14,22.56 5.42,5.49 12.83,8.24 22.23,8.24 h 26.68 c 9.4,0 16.81,-2.75 22.24,-8.24 5.42,-5.49 8.13,-13.01 8.13,-22.56 v -77.88 c 0,-9.54 -2.71,-17.06 -8.13,-22.56 -5.43,-5.49 -12.84,-8.24 -22.24,-8.24" /><path
         id="path152"
         style="fill:#ffffff;fill-opacity:1;fill-rule:nonzero;stroke:none"
         d="m 3258.39,3335.89 h -68.98 c -1.45,0 -2.16,0.87 -2.16,2.6 v 134.28 c 0,1.74 0.71,2.6 2.16,2.6 h 6.29 c 1.6,0 2.39,-0.86 2.39,-2.6 v -124.73 c 0,-1.3 0.73,-1.95 2.17,-1.95 h 58.13 c 1.74,0 2.61,-0.8 2.61,-2.39 v -5.42 c 0,-1.6 -0.87,-2.39 -2.61,-2.39" /><path
         id="path154"
         style="fill:#ffffff;fill-opacity:1;fill-rule:nonzero;stroke:none"
         d="m 3305.47,3345.65 h 24.73 c 6.65,0 11.75,1.85 15.29,5.53 3.55,3.69 5.32,9.01 5.32,15.95 v 77.01 c 0,6.94 -1.77,12.25 -5.32,15.94 -3.54,3.69 -8.64,5.53 -15.29,5.53 h -24.73 c -6.66,0 -11.71,-1.88 -15.19,-5.64 -3.47,-3.76 -5.2,-9.04 -5.2,-15.83 v -77.01 c 0,-6.8 1.73,-12.08 5.2,-15.84 3.48,-3.76 8.53,-5.64 15.19,-5.64 m 25.81,-9.76 h -26.68 c -9.4,0 -16.81,2.75 -22.23,8.24 -5.43,5.5 -8.14,13.02 -8.14,22.56 v 77.88 c 0,9.55 2.71,17.07 8.14,22.56 5.42,5.49 12.83,8.24 22.23,8.24 h 26.68 c 9.4,0 16.81,-2.75 22.24,-8.24 5.42,-5.49 8.13,-13.01 8.13,-22.56 v -77.88 c 0,-9.54 -2.71,-17.06 -8.13,-22.56 -5.43,-5.49 -12.84,-8.24 -22.24,-8.24" /><path
         id="path156"
         style="fill:#ffffff;fill-opacity:1;fill-rule:nonzero;stroke:none"
         d="m 3487.9,3475.37 h 11.71 c 1.45,0 2.17,-0.87 2.17,-2.6 v -134.28 c 0,-1.74 -0.72,-2.6 -2.17,-2.6 h -6.29 c -1.59,0 -2.38,0.86 -2.38,2.6 v 120.18 h -0.87 l -38.4,-90.03 c -0.86,-1.59 -1.95,-2.38 -3.25,-2.38 h -7.16 c -1.45,0 -2.46,0.79 -3.04,2.38 l -39.04,90.24 h -0.87 v -120.39 c 0,-1.74 -0.73,-2.6 -2.17,-2.6 h -6.29 c -1.45,0 -2.17,0.86 -2.17,2.6 v 134.28 c 0,1.73 0.72,2.6 2.17,2.6 h 11.71 c 1.01,0 1.66,-0.43 1.95,-1.3 l 40.78,-95.23 h 0.88 l 40.78,95.23 c 0.28,0.87 0.94,1.3 1.95,1.3" /><path
         id="path158"
         style="fill:#ffffff;fill-opacity:1;fill-rule:nonzero;stroke:none"
         d="m 3543,3345.43 h 40.35 c 13.74,0 20.61,6.94 20.61,20.83 v 14.96 c 0,13.74 -7.52,20.61 -22.56,20.61 H 3543 c -1.45,0 -2.17,-0.58 -2.17,-1.73 v -52.72 c 0,-1.3 0.72,-1.95 2.17,-1.95 m 0,65.95 h 38.18 c 6.8,0 12.04,1.8 15.73,5.42 3.69,3.61 5.53,8.75 5.53,15.4 v 12.8 c 0,13.88 -6.87,20.83 -20.61,20.83 H 3543 c -1.45,0 -2.17,-0.65 -2.17,-1.96 v -50.54 c 0,-1.3 0.72,-1.95 2.17,-1.95 m -13.01,-72.89 v 134.28 c 0,1.73 0.72,2.6 2.16,2.6 h 50.55 c 9.4,0 16.84,-2.68 22.34,-8.03 5.5,-5.35 8.25,-12.72 8.25,-22.12 v -13.23 c 0,-13.17 -6.22,-21.63 -18.66,-25.38 5.35,-0.3 10.05,-2.75 14.1,-7.38 4.05,-4.63 6.07,-10.63 6.07,-18.01 v -15.18 c 0,-9.4 -2.74,-16.78 -8.24,-22.13 -5.5,-5.35 -12.94,-8.02 -22.34,-8.02 h -52.07 c -1.44,0 -2.16,0.86 -2.16,2.6" /><path
         id="path160"
         style="fill:#ffffff;fill-opacity:1;fill-rule:nonzero;stroke:none"
         d="m 3651.68,3472.77 v -134.28 c 0,-1.73 -0.8,-2.6 -2.39,-2.6 H 3643 c -1.45,0 -2.17,0.87 -2.17,2.6 v 134.28 c 0,1.74 0.72,2.6 2.17,2.6 h 6.29 c 1.59,0 2.39,-0.86 2.39,-2.6" /><path
         id="path162"
         style="fill:#ffffff;fill-opacity:1;fill-rule:nonzero;stroke:none"
         d="m 3719.79,3463.44 -24.95,-80.48 h 50.98 l -25.16,80.48 z m -42.52,-127.55 h -6.72 c -1.6,0 -2.1,0.86 -1.51,2.6 l 43.16,134.28 c 0.43,1.73 1.44,2.6 3.04,2.6 h 10.19 c 1.45,0 2.46,-0.87 3.04,-2.6 l 43.17,-134.28 c 0.43,-1.74 -0.08,-2.6 -1.51,-2.6 h -6.95 c -1.45,0 -2.39,0.86 -2.82,2.6 l -11.72,34.71 h -56.83 l -11.72,-34.71 c -0.58,-1.74 -1.51,-2.6 -2.82,-2.6" /><path
         id="path164"
         style="fill:#ffffff;fill-opacity:1;fill-rule:nonzero;stroke:none"
         d="m 4461.63,2552.384 c 0,-61.864 -17.38,-110.161 -52.11,-144.891 -34.75,-34.762 -83.47,-52.109 -146.16,-52.109 h -147.43 c -62.73,0 -111.22,17.347 -145.54,52.109 -34.3,34.73 -51.46,83.027 -51.46,144.891 v 423.236 c 0,62.7 17.16,111.21 51.46,145.53 34.32,34.31 82.81,51.47 145.54,51.47 h 147.43 c 62.69,0 111.41,-17.16 146.16,-51.47 34.73,-34.32 52.11,-82.83 52.11,-145.53 z m 60.25,725.116 h -743.99 l 0.81,-104.88 h 41.09 c 14.41,0 21.62,-7.21 21.62,-21.6 v -774.039 c 0,-14.41 -7.21,-21.597 -21.62,-21.597 h -34.86 l 0.66,-88.5 h 736.29 c 44.69,0 80.91,36.218 80.91,80.91 v 848.796 c 0,44.69 -36.22,80.91 -80.91,80.91 m -277.59,-212.91 h -110.58 c -61,0 -91.51,-31.36 -91.51,-94.05 v -413.078 c 0,-62.711 30.51,-94.051 91.51,-94.051 h 110.58 c 61.84,0 92.78,31.34 92.78,94.051 v 413.078 c 0,62.69 -30.94,94.05 -92.78,94.05" /><g
         transform="translate(-1032.75,1705.95)"
         id="g166"><g
           clip-path="url(#clipPath172)"
           id="g168"><g
             id="g174" /><g
             id="g192"><g
               id="g190"
               opacity="0.649994"
               clip-path="url(#clipPath178)"><g
                 id="g188"><g
                   id="g186"
                   clip-path="url(#clipPath182)"><path
                     id="path184"
                     style="fill:#ffffff;fill-opacity:1;fill-rule:nonzero;stroke:none"
                     d="m 4675.89,843.891 c 0,-61.864 -17.37,-109.743 -52.1,-143.621 -34.75,-33.903 -83.06,-50.84 -144.9,-50.84 h -312.67 c -14.42,0 -21.61,7.187 -21.61,21.597 v 774.043 c 0,14.4 7.19,21.61 21.61,21.61 h 301.23 c 62.69,0 111.41,-16.96 146.16,-50.84 34.73,-33.9 52.11,-81.78 52.11,-143.62 v -62.28 c 0,-73.72 -34.75,-121.18 -104.22,-142.36 33.05,-4.24 60.38,-18.64 81.98,-43.21 21.61,-24.581 32.41,-57.632 32.41,-99.14 z M 4817.71,649.43 h -45.24 c -14.42,0 -21.61,7.187 -21.61,21.597 v 774.043 c 0,14.4 7.19,21.61 21.61,21.61 h 39.01 l -0.8,104.87 h -736.29 c -44.68,0 -80.89,-36.22 -80.89,-80.9 V 641.84 c 0,-44.68 36.21,-80.91 80.89,-80.91 h 744 z m -362.96,367.31 h -172.87 c -9.33,0 -13.97,-4.24 -13.97,-12.7 V 767.629 c 0,-8.481 4.64,-12.711 13.97,-12.711 h 177.94 c 63.56,0 95.33,30.512 95.33,91.512 v 78.8 c 0,61.008 -33.49,91.51 -100.4,91.51 m -172.87,101.68 h 165.23 c 64.39,0 96.6,30.93 96.6,92.79 v 58.46 c 0,61.01 -31.35,91.51 -94.06,91.51 h -167.77 c -9.33,0 -13.97,-4.25 -13.97,-12.71 v -217.33 c 0,-8.48 4.64,-12.72 13.97,-12.72" /></g></g></g></g></g></g></g></g></svg>
